<svg width="19" height="29" viewBox="0 0 19 29" fill="none" xmlns="http://www.w3.org/2000/svg">
<path d="M16.7381 0H2.2619C1.66223 0.000718316 1.08732 0.239256 0.66329 0.66329C0.239256 1.08732 0.000718317 1.66223 0 2.2619V25.7857C0.000718317 26.3854 0.239256 26.9603 0.66329 27.3843C1.08732 27.8084 1.66223 28.0469 2.2619 28.0476H16.7381C17.3378 28.0469 17.9127 27.8084 18.3367 27.3843C18.7607 26.9603 18.9993 26.3854 19 25.7857V2.2619C18.9993 1.66223 18.7607 1.08732 18.3367 0.66329C17.9127 0.239256 17.3378 0.000718316 16.7381 0ZM18.0952 25.7857C18.0952 26.1456 17.9523 26.4908 17.6977 26.7454C17.4432 26.9999 17.098 27.1429 16.7381 27.1429H2.2619C1.90197 27.1429 1.55677 26.9999 1.30226 26.7454C1.04775 26.4908 0.904762 26.1456 0.904762 25.7857V2.2619C0.904762 1.90197 1.04775 1.55677 1.30226 1.30226C1.55677 1.04775 1.90197 0.904762 2.2619 0.904762H16.7381C17.098 0.904762 17.4432 1.04775 17.6977 1.30226C17.9523 1.55677 18.0952 1.90197 18.0952 2.2619V25.7857Z" fill="#191930"/>
<path d="M15.8334 1.80859H3.16671C2.80678 1.80859 2.46158 1.95158 2.20707 2.20609C1.95255 2.46061 1.80957 2.8058 1.80957 3.16574V24.88C1.80957 25.24 1.95255 25.5852 2.20707 25.8397C2.46158 26.0942 2.80678 26.2372 3.16671 26.2372H15.8334C16.1933 26.2372 16.5385 26.0942 16.793 25.8397C17.0475 25.5852 17.1905 25.24 17.1905 24.88V3.16574C17.1905 2.8058 17.0475 2.46061 16.793 2.20609C16.5385 1.95158 16.1933 1.80859 15.8334 1.80859ZM3.16671 2.71336H15.8334C15.9534 2.71336 16.0684 2.76102 16.1533 2.84586C16.2381 2.93069 16.2858 3.04576 16.2858 3.16574V18.7869L13.8225 20.8398L11.6715 21.27C11.5539 21.2934 11.4504 21.3626 11.3838 21.4623L10.6152 22.6181H6.45055L2.71433 20.5426V3.16574C2.71433 3.04576 2.76199 2.93069 2.84683 2.84586C2.93167 2.76102 3.04673 2.71336 3.16671 2.71336ZM15.8334 25.3324H3.16671C3.04673 25.3324 2.93167 25.2847 2.84683 25.1999C2.76199 25.1151 2.71433 25 2.71433 24.88V21.5776L6.11397 23.4663C6.18106 23.5037 6.25661 23.5231 6.33338 23.5229H10.8572C10.9316 23.5229 11.005 23.5045 11.0706 23.4694C11.1363 23.4343 11.1922 23.3835 11.2336 23.3216L12.0334 22.1205L14.1143 21.7043C14.1884 21.6896 14.2576 21.6567 14.3156 21.6084L16.2858 19.9649V24.88C16.2858 25 16.2381 25.1151 16.1533 25.1999C16.0684 25.2847 15.9534 25.3324 15.8334 25.3324Z" fill="#191930"/>
<path d="M4.07209 9.95276C3.9936 9.95275 3.91645 9.97316 3.84824 10.012C3.78002 10.0508 3.72308 10.1067 3.68301 10.1742C3.64294 10.2417 3.62112 10.3185 3.6197 10.397C3.61828 10.4754 3.6373 10.5529 3.6749 10.6218L5.53057 14.0242L3.67581 17.427C3.63836 17.4958 3.61942 17.5732 3.62085 17.6515C3.62229 17.7299 3.64405 17.8065 3.684 17.8739C3.72395 17.9413 3.78072 17.9972 3.84875 18.036C3.91678 18.0749 3.99374 18.0954 4.07209 18.0956H7.75176L9.10347 20.5742C9.14238 20.6456 9.1998 20.7052 9.2697 20.7467C9.33959 20.7882 9.41938 20.8101 9.50066 20.8101C9.58195 20.8101 9.66174 20.7882 9.73163 20.7467C9.80153 20.7052 9.85895 20.6456 9.89785 20.5742L11.2496 18.0956H14.9292C15.0077 18.0956 15.0849 18.0752 15.1531 18.0364C15.2213 17.9976 15.2783 17.9417 15.3183 17.8742C15.3584 17.8067 15.3802 17.7299 15.3816 17.6514C15.383 17.573 15.364 17.4955 15.3264 17.4265L13.4708 14.0242L15.3255 10.6218C15.3631 10.553 15.3821 10.4756 15.3807 10.3972C15.3793 10.3188 15.3576 10.2421 15.3176 10.1746C15.2777 10.1071 15.2209 10.0512 15.1528 10.0123C15.0847 9.97343 15.0077 9.95291 14.9292 9.95276H11.2496L9.89785 7.47417C9.85539 7.40728 9.79672 7.3522 9.72728 7.31403C9.65785 7.27587 9.5799 7.25586 9.50066 7.25586C9.42143 7.25586 9.34348 7.27587 9.27405 7.31403C9.20461 7.3522 9.14594 7.40728 9.10347 7.47417L7.75176 9.95276H4.07209ZM4.83436 10.8575H7.25821L6.04628 13.0796L4.83436 10.8575ZM8.28874 10.8575H10.7126L12.4411 14.0242L10.7139 17.1909H8.28874L6.56019 14.0242L8.28874 10.8575ZM4.83436 17.1909L6.04628 14.9688L7.25821 17.1909H4.83436ZM9.50066 19.4134L8.78228 18.0956H10.219L9.50066 19.4134ZM14.167 17.1909H11.7431L12.955 14.9688L14.167 17.1909ZM14.167 10.8575L12.955 13.0796L11.7431 10.8575H14.167ZM9.50066 8.63543L10.219 9.95276H8.78228L9.50066 8.63543Z" fill="#191930"/>
<path d="M9.50032 15.8339C10.1992 15.8319 10.869 15.5544 11.3646 15.0617L12.0821 14.3442C12.1669 14.2594 12.2145 14.1443 12.2145 14.0244C12.2145 13.9044 12.1669 13.7894 12.0821 13.7045L11.3646 12.987C10.8701 12.4926 10.1996 12.2148 9.50032 12.2148C8.80109 12.2148 8.13049 12.4926 7.63606 12.987L6.91858 13.7045C6.83378 13.7894 6.78613 13.9044 6.78613 14.0244C6.78613 14.1443 6.83378 14.2594 6.91858 14.3442L7.63606 15.0617C8.13161 15.5544 8.80148 15.8319 9.50032 15.8339ZM8.27573 13.6267C8.60055 13.302 9.04104 13.1196 9.50032 13.1196C9.95961 13.1196 10.4001 13.302 10.7249 13.6267L11.1226 14.0244L10.7249 14.422C10.4001 14.7467 9.95961 14.9291 9.50032 14.9291C9.04104 14.9291 8.60055 14.7467 8.27573 14.422L7.87808 14.0244L8.27573 13.6267Z" fill="#191930"/>
<path d="M9.49998 14.9277C9.99966 14.9277 10.4047 14.5226 10.4047 14.0229C10.4047 13.5232 9.99966 13.1182 9.49998 13.1182C9.00029 13.1182 8.59521 13.5232 8.59521 14.0229C8.59521 14.5226 9.00029 14.9277 9.49998 14.9277Z" fill="#191930"/>
<path d="M13.1193 8.14295C13.5667 8.14295 14.004 8.01029 14.376 7.76175C14.7479 7.51321 15.0379 7.15995 15.2091 6.74664C15.3803 6.33333 15.425 5.87854 15.3378 5.43977C15.2505 5.001 15.0351 4.59797 14.7187 4.28164C14.4024 3.96531 13.9994 3.74988 13.5606 3.6626C13.1218 3.57533 12.667 3.62012 12.2537 3.79132C11.8404 3.96252 11.4872 4.25243 11.2386 4.6244C10.9901 4.99637 10.8574 5.43368 10.8574 5.88105C10.8581 6.48072 11.0967 7.05563 11.5207 7.47966C11.9447 7.9037 12.5197 8.14223 13.1193 8.14295ZM13.1193 4.5239C13.3877 4.5239 13.6501 4.6035 13.8733 4.75262C14.0965 4.90175 14.2704 5.11371 14.3732 5.36169C14.4759 5.60968 14.5028 5.88255 14.4504 6.14581C14.398 6.40907 14.2688 6.65089 14.079 6.84069C13.8892 7.03049 13.6474 7.15975 13.3841 7.21211C13.1208 7.26448 12.848 7.2376 12.6 7.13488C12.352 7.03216 12.14 6.85822 11.9909 6.63504C11.8418 6.41185 11.7622 6.14946 11.7622 5.88105C11.7622 5.52111 11.9052 5.17592 12.1597 4.9214C12.4142 4.66689 12.7594 4.5239 13.1193 4.5239Z" fill="#191930"/>
<path d="M4.07201 6.78581C4.55193 6.78581 5.01218 6.97645 5.35154 7.31581C5.69089 7.65516 5.88153 8.11542 5.88153 8.59533C5.88153 8.71531 5.92919 8.83038 6.01403 8.91521C6.09887 9.00005 6.21394 9.04771 6.33391 9.04771C6.45389 9.04771 6.56896 9.00005 6.6538 8.91521C6.73863 8.83038 6.7863 8.71531 6.7863 8.59533C6.7863 8.11542 6.97694 7.65516 7.31629 7.31581C7.65564 6.97645 8.1159 6.78581 8.59582 6.78581C8.7158 6.78581 8.83086 6.73815 8.9157 6.65331C9.00054 6.56847 9.0482 6.45341 9.0482 6.33343C9.0482 6.21345 9.00054 6.09838 8.9157 6.01355C8.83086 5.92871 8.7158 5.88105 8.59582 5.88105C8.1159 5.88105 7.65564 5.6904 7.31629 5.35105C6.97694 5.0117 6.7863 4.55144 6.7863 4.07152C6.7863 3.95154 6.73863 3.83648 6.6538 3.75164C6.56896 3.6668 6.45389 3.61914 6.33391 3.61914C6.21394 3.61914 6.09887 3.6668 6.01403 3.75164C5.92919 3.83648 5.88153 3.95154 5.88153 4.07152C5.88153 4.55144 5.69089 5.0117 5.35154 5.35105C5.01218 5.6904 4.55193 5.88105 4.07201 5.88105C3.95203 5.88105 3.83697 5.92871 3.75213 6.01355C3.66729 6.09838 3.61963 6.21345 3.61963 6.33343C3.61963 6.45341 3.66729 6.56847 3.75213 6.65331C3.83697 6.73815 3.95203 6.78581 4.07201 6.78581ZM6.33391 5.57026C6.53512 5.87279 6.79455 6.13222 7.09708 6.33343C6.79455 6.53463 6.53512 6.79406 6.33391 7.09659C6.13271 6.79406 5.87328 6.53463 5.57075 6.33343C5.87328 6.13222 6.13271 5.87279 6.33391 5.57026Z" fill="#191930"/>
</svg>
