<svg width="14" height="21" viewBox="0 0 14 21" fill="none" xmlns="http://www.w3.org/2000/svg">
<path d="M11.9524 0.904663H2.04757C1.63726 0.905155 1.2439 1.06837 0.953772 1.3585C0.663642 1.64863 0.50043 2.04199 0.499939 2.45229V18.5476C0.50043 18.958 0.663642 19.3513 0.953772 19.6414C1.2439 19.9316 1.63726 20.0948 2.04757 20.0953H11.9524C12.3627 20.0948 12.7561 19.9316 13.0462 19.6414C13.3363 19.3513 13.4995 18.958 13.5 18.5476V2.45229C13.4995 2.04199 13.3363 1.64863 13.0462 1.3585C12.7561 1.06837 12.3627 0.905155 11.9524 0.904663ZM12.881 18.5476C12.881 18.7939 12.7831 19.0301 12.609 19.2043C12.4349 19.3784 12.1987 19.4762 11.9524 19.4762H2.04757C1.8013 19.4762 1.56511 19.3784 1.39097 19.2043C1.21682 19.0301 1.11899 18.7939 1.11899 18.5476V2.45229C1.11899 2.20602 1.21682 1.96983 1.39097 1.79569C1.56511 1.62155 1.8013 1.52372 2.04757 1.52372H11.9524C12.1987 1.52372 12.4349 1.62155 12.609 1.79569C12.7831 1.96983 12.881 2.20602 12.881 2.45229V18.5476Z" fill="#F0E8D9"/>
<path d="M11.3334 2.1424H2.66668C2.4204 2.1424 2.18421 2.24023 2.01007 2.41437C1.83593 2.58851 1.7381 2.8247 1.7381 3.07097V17.9282C1.7381 18.1745 1.83593 18.4107 2.01007 18.5848C2.18421 18.759 2.4204 18.8568 2.66668 18.8568H11.3334C11.5797 18.8568 11.8159 18.759 11.99 18.5848C12.1642 18.4107 12.262 18.1745 12.262 17.9282V3.07097C12.262 2.8247 12.1642 2.58851 11.99 2.41437C11.8159 2.24023 11.5797 2.1424 11.3334 2.1424ZM2.66668 2.76145H11.3334C11.4155 2.76145 11.4942 2.79406 11.5523 2.85211C11.6103 2.91015 11.6429 2.98888 11.6429 3.07097V13.7592L9.95756 15.1638L8.48577 15.4582C8.40531 15.4742 8.3345 15.5215 8.28891 15.5898L7.76302 16.3806H4.91353L2.35715 14.9605V3.07097C2.35715 2.98888 2.38976 2.91015 2.44781 2.85211C2.50586 2.79406 2.58458 2.76145 2.66668 2.76145ZM11.3334 18.2377H2.66668C2.58458 18.2377 2.50586 18.2051 2.44781 18.1471C2.38976 18.089 2.35715 18.0103 2.35715 17.9282V15.6687L4.68324 16.961C4.72914 16.9865 4.78083 16.9998 4.83336 16.9996H7.92862C7.97956 16.9997 8.02972 16.9871 8.07465 16.9631C8.11957 16.939 8.15787 16.9043 8.18615 16.8619L8.73339 16.0401L10.1572 15.7554C10.2079 15.7453 10.2552 15.7228 10.2949 15.6897L11.6429 14.5652V17.9282C11.6429 18.0103 11.6103 18.089 11.5523 18.1471C11.4942 18.2051 11.4155 18.2377 11.3334 18.2377Z" fill="#F0E8D9"/>
<path d="M3.28584 7.71453C3.23213 7.71452 3.17935 7.72848 3.13267 7.75505C3.086 7.78161 3.04704 7.81987 3.01962 7.86605C2.99221 7.91223 2.97728 7.96475 2.97631 8.01845C2.97534 8.07215 2.98835 8.12517 3.01408 8.17232L4.28375 10.5003L3.0147 12.8285C2.98907 12.8756 2.97611 12.9285 2.9771 12.9821C2.97808 13.0357 2.99297 13.0882 3.0203 13.1343C3.04763 13.1804 3.08648 13.2186 3.13303 13.2452C3.17957 13.2718 3.23223 13.2859 3.28584 13.286H5.80353L6.72839 14.9819C6.75501 15.0307 6.7943 15.0715 6.84212 15.0999C6.88994 15.1283 6.94454 15.1433 7.00015 15.1433C7.05577 15.1433 7.11036 15.1283 7.15818 15.0999C7.20601 15.0715 7.24529 15.0307 7.27192 14.9819L8.19678 13.286H10.7145C10.7682 13.286 10.821 13.272 10.8676 13.2455C10.9143 13.2189 10.9533 13.1807 10.9807 13.1345C11.0081 13.0883 11.023 13.0358 11.024 12.9821C11.025 12.9284 11.012 12.8754 10.9862 12.8282L9.71655 10.5003L10.9856 8.17232C11.0113 8.12522 11.0243 8.07225 11.0234 8.0186C11.0224 7.96496 11.0076 7.91248 10.9802 7.86631C10.9529 7.82015 10.914 7.78189 10.8674 7.75528C10.8208 7.72867 10.7681 7.71462 10.7145 7.71453H8.19678L7.27192 6.01863C7.24286 5.97287 7.20272 5.93518 7.15521 5.90907C7.1077 5.88295 7.05437 5.86926 7.00015 5.86926C6.94594 5.86926 6.89261 5.88295 6.8451 5.90907C6.79759 5.93518 6.75745 5.97287 6.72839 6.01863L5.80353 7.71453H3.28584ZM3.80739 8.33358H5.46583L4.63661 9.85397L3.80739 8.33358ZM6.17093 8.33358H7.82937L9.01207 10.5003L7.8303 12.6669H6.17093L4.98823 10.5003L6.17093 8.33358ZM3.80739 12.6669L4.63661 11.1466L5.46583 12.6669H3.80739ZM7.00015 14.1876L6.50863 13.286H7.49168L7.00015 14.1876ZM10.1929 12.6669H8.53447L9.36369 11.1466L10.1929 12.6669ZM10.1929 8.33358L9.36369 9.85397L8.53447 8.33358H10.1929ZM7.00015 6.81319L7.49168 7.71453H6.50863L7.00015 6.81319Z" fill="#F0E8D9"/>
<path d="M7.0001 11.7384C7.47825 11.7371 7.93659 11.5472 8.27565 11.21L8.76656 10.7191C8.82459 10.6611 8.85719 10.5824 8.85719 10.5003C8.85719 10.4182 8.82459 10.3395 8.76656 10.2815L8.27565 9.79056C7.93735 9.45226 7.47852 9.26221 7.0001 9.26221C6.52167 9.26221 6.06284 9.45226 5.72454 9.79056L5.23363 10.2815C5.1756 10.3395 5.14301 10.4182 5.14301 10.5003C5.14301 10.5824 5.1756 10.6611 5.23363 10.7191L5.72454 11.21C6.0636 11.5472 6.52194 11.7371 7.0001 11.7384ZM6.16221 10.2282C6.38446 10.0061 6.68585 9.88126 7.0001 9.88126C7.31435 9.88126 7.61573 10.0061 7.83798 10.2282L8.11006 10.5003L7.83798 10.7724C7.61573 10.9945 7.31435 11.1193 7.0001 11.1193C6.68585 11.1193 6.38446 10.9945 6.16221 10.7724L5.89014 10.5003L6.16221 10.2282Z" fill="#F0E8D9"/>
<path d="M6.99979 11.1188C7.34168 11.1188 7.61884 10.8416 7.61884 10.4997C7.61884 10.1578 7.34168 9.88068 6.99979 9.88068C6.6579 9.88068 6.38074 10.1578 6.38074 10.4997C6.38074 10.8416 6.6579 11.1188 6.99979 11.1188Z" fill="#F0E8D9"/>
<path d="M9.47616 6.47624C9.78225 6.47624 10.0815 6.38548 10.336 6.21542C10.5905 6.04536 10.7888 5.80366 10.906 5.52086C11.0231 5.23807 11.0538 4.9269 10.9941 4.62669C10.9343 4.32647 10.7869 4.05071 10.5705 3.83427C10.3541 3.61783 10.0783 3.47044 9.77809 3.41072C9.47788 3.351 9.1667 3.38165 8.88391 3.49879C8.60111 3.61592 8.35941 3.81429 8.18935 4.0688C8.01929 4.3233 7.92853 4.62252 7.92853 4.92861C7.92902 5.33892 8.09223 5.73228 8.38236 6.02241C8.67249 6.31254 9.06585 6.47575 9.47616 6.47624ZM9.47616 4.00003C9.65981 4.00003 9.83934 4.05449 9.99205 4.15653C10.1448 4.25856 10.2638 4.40359 10.3341 4.57326C10.4043 4.74294 10.4227 4.92964 10.3869 5.10977C10.3511 5.2899 10.2626 5.45535 10.1328 5.58522C10.0029 5.71508 9.83744 5.80352 9.65731 5.83935C9.47719 5.87518 9.29048 5.85679 9.12081 5.78651C8.95113 5.71623 8.80611 5.59721 8.70407 5.4445C8.60204 5.2918 8.54758 5.11227 8.54758 4.92861C8.54758 4.68234 8.64541 4.44615 8.81955 4.27201C8.9937 4.09787 9.22988 4.00003 9.47616 4.00003Z" fill="#F0E8D9"/>
<path d="M3.28578 5.54766C3.61415 5.54766 3.92907 5.67811 4.16126 5.9103C4.39344 6.14249 4.52389 6.4574 4.52389 6.78577C4.52389 6.86786 4.5565 6.94659 4.61455 7.00464C4.67259 7.06268 4.75132 7.09529 4.83341 7.09529C4.91551 7.09529 4.99423 7.06268 5.05228 7.00464C5.11033 6.94659 5.14294 6.86786 5.14294 6.78577C5.14294 6.4574 5.27338 6.14249 5.50557 5.9103C5.73776 5.67811 6.05268 5.54766 6.38104 5.54766C6.46314 5.54766 6.54186 5.51505 6.59991 5.45701C6.65796 5.39896 6.69057 5.32023 6.69057 5.23814C6.69057 5.15605 6.65796 5.07732 6.59991 5.01927C6.54186 4.96122 6.46314 4.92861 6.38104 4.92861C6.05268 4.92861 5.73776 4.79817 5.50557 4.56598C5.27338 4.33379 5.14294 4.01887 5.14294 3.69051C5.14294 3.60842 5.11033 3.52969 5.05228 3.47164C4.99423 3.41359 4.91551 3.38098 4.83341 3.38098C4.75132 3.38098 4.67259 3.41359 4.61455 3.47164C4.5565 3.52969 4.52389 3.60842 4.52389 3.69051C4.52389 4.01887 4.39344 4.33379 4.16126 4.56598C3.92907 4.79817 3.61415 4.92861 3.28578 4.92861C3.20369 4.92861 3.12496 4.96122 3.06692 5.01927C3.00887 5.07732 2.97626 5.15605 2.97626 5.23814C2.97626 5.32023 3.00887 5.39896 3.06692 5.45701C3.12496 5.51505 3.20369 5.54766 3.28578 5.54766ZM4.83341 4.71597C4.97108 4.92296 5.14859 5.10047 5.35558 5.23814C5.14859 5.3758 4.97108 5.55331 4.83341 5.76031C4.69575 5.55331 4.51824 5.3758 4.31124 5.23814C4.51824 5.10047 4.69575 4.92296 4.83341 4.71597Z" fill="#F0E8D9"/>
</svg>
