<svg width="160" height="510" viewBox="0 0 160 510" fill="none" xmlns="http://www.w3.org/2000/svg">
<g clip-path="url(#clip0_93_3988)">
<circle cx="85" cy="85" r="85" transform="matrix(0 -1 -1 0 93 595)" fill="#574B64"/>
<circle cx="85" cy="85" r="85" transform="matrix(0 -1 -1 0 115 425)" fill="#574B64"/>
<circle cx="85" cy="85" r="85" transform="matrix(0 -1 -1 0 85 510)" fill="#574B64"/>
<circle cx="85" cy="85" r="85" transform="matrix(0 -1 -1 0 115 255)" fill="#574B64"/>
<circle cx="85" cy="85" r="85" transform="matrix(0 -1 -1 0 85 316)" fill="#574B64"/>
<circle cx="85" cy="85" r="85" transform="matrix(0 -1 -1 0 80 183)" fill="#574B64"/>
<circle cx="85" cy="85" r="85" transform="matrix(0 -1 -1 0 93 85)" fill="#574B64"/>
</g>
<defs>
<clipPath id="clip0_93_3988">
<rect width="510" height="160" fill="white" transform="matrix(0 1 -1 0 160 0)"/>
</clipPath>
</defs>
</svg>
