<svg width="362" height="40" viewBox="0 0 362 40" fill="none" xmlns="http://www.w3.org/2000/svg">
    <path fill-rule="evenodd" clip-rule="evenodd" d="M158.6 27.195c0-3.941-1.884-6.7-4.711-9.328l-2.325-2.167c3.393-.526 5.654-2.89 5.654-6.372 0-5.846-4.46-9.328-13.883-9.328-9.234 0-14.636 4.861-14.636 12.546 0 3.942 1.947 6.635 4.774 9.328l2.261 2.168h-.063c-4.208 0-7.161 2.562-7.161 6.569 0 5.78 4.649 9.328 14.574 9.328 9.737 0 15.516-4.927 15.516-12.744zm47.592 5.26c2.14 4.618 5.158 6.829 8.87 6.829 6.668 0 11.386-6.309 8.492-13.398l-7.738-18.732C213.93 2.537 211.1 0 206.256 0c-4.78 0-7.612 2.537-9.562 7.154l-7.737 18.732c-2.956 7.089 1.825 13.398 8.429 13.398 3.648 0 6.668-2.211 8.806-6.83zM226.93 10.41c0-6.417 3.284-9.756 9.16-9.756h10.928c6.634 0 11.814 5.238 11.814 11.982 0 3.666-1.452 6.678-3.854 8.577l3.286 5.434c.884 1.44 1.264 3.012 1.264 4.649 0 4.845-3.666 8.642-8.276 8.642-2.844 0-5.624-1.506-7.202-4.256l-.884-1.636c-1.074 3.47-4.044 5.892-7.834 5.892-4.612 0-8.402-4.06-8.402-8.97V10.41zm49.71 29.528c5.204 0 9.09-3.994 9.09-8.839V17.546c4.2-.196 7.648-3.862 7.648-8.446 0-4.714-3.636-8.446-8.086-8.446H268.24c-4.45 0-8.086 3.667-8.086 8.446 0 4.584 3.448 8.185 7.648 8.446V31.1c0 4.845 3.948 8.84 8.838 8.84zm43.228-14.79c3.176.66 5.482 3.5 5.482 7.263 0 4.225-3.24 7.592-7.164 7.526h-13.082c-5.98 0-9.218-3.3-9.218-9.771v-19.74c0-6.405 3.238-9.772 9.218-9.772h13.082c3.924 0 7.164 3.367 7.164 7.593 0 3.83-2.244 6.602-5.482 7.262 1.494.99 2.304 2.641 2.304 4.82 0 2.178-.872 3.829-2.304 4.82zm16.392 14.79c-4.612 0-8.402-4.06-8.402-8.97V10.41c0-6.417 3.222-9.756 9.16-9.756h10.928c6.634 0 11.814 5.238 11.814 11.982 0 3.666-1.454 6.678-3.854 8.577l3.286 5.434c.884 1.44 1.262 3.012 1.262 4.649 0 4.845-3.664 8.642-8.274 8.642-2.844 0-5.624-1.506-7.202-4.256l-.886-1.636c-1.074 3.47-4.042 5.892-7.832 5.892zM184.161 31.1c0 4.845-3.956 8.84-9.044 8.84-4.899 0-8.855-3.995-8.855-8.84V17.546c-4.208-.261-7.663-3.862-7.663-8.446 0-4.78 3.643-8.446 8.102-8.446h17.021c4.459 0 8.102 3.732 8.102 8.446 0 4.584-3.455 8.25-7.663 8.446V31.1z" fill="#05E083"/>
    <path fill-rule="evenodd" clip-rule="evenodd" d="M33.851 30.488c0-1.824-.505-3.583-1.579-5.146l-4.041-5.798 4.041-5.798c1.074-1.498 1.58-3.323 1.58-5.147 0-4.82-3.853-8.534-8.4-8.534-2.653 0-5.305 1.368-6.947 3.713l-2.021 2.867C15.726 2.8 12.504 0 8.4 0 3.663 0 0 3.909 0 8.73v21.824c0 4.82 3.726 8.73 8.4 8.73 4.042 0 7.2-2.607 8.02-6.385l1.769 2.606a8.445 8.445 0 0 0 7.01 3.778c4.8.065 8.652-3.974 8.652-8.795zM36.36 9.397c0-5.09 4.054-9.397 9.12-9.397 5.068 0 9.122 4.307 9.059 9.397v20.49c0 5.09-3.991 9.397-9.122 9.397-5.003 0-9.057-4.242-9.057-9.397V9.397zm53.285 19.09c0-4.162-1.995-7.089-5.983-8.845 3.988-1.756 5.983-4.618 5.983-8.845C89.644 4.487 84.596 0 76.494 0 65.65 0 57.673 8.39 57.673 19.642c0 11.252 7.977 19.642 18.821 19.642 8.102 0 13.15-4.488 13.15-10.797zm35.403-3.145c1.076 1.563 1.582 3.322 1.582 5.146 0 4.821-3.86 8.86-8.605 8.795A8.467 8.467 0 0 1 111 35.505l-1.771-2.606c-.823 3.778-3.986 6.384-8.036 6.384-4.682 0-8.415-3.909-8.415-8.73V8.73c0-4.821 3.67-8.73 8.415-8.73 4.113 0 7.34 2.801 8.099 6.645l1.962-2.867c1.645-2.345 4.302-3.713 6.96-3.713 4.555 0 8.415 3.713 8.415 8.534 0 1.824-.506 3.649-1.582 5.147l-4.049 5.798 4.049 5.798z" fill="#fff"/>
</svg>
