<svg width="158" height="54" viewBox="0 0 158 54" fill="none" xmlns="http://www.w3.org/2000/svg">
    <path fill-rule="evenodd" clip-rule="evenodd" d="M83.025 21.023v.489c0 1.27.358 2.255 1.074 2.956.718.7 1.711 1.05 2.981 1.05h2.663c1.27 0 2.264-.35 2.98-1.05.717-.7 1.076-1.686 1.076-2.956v-.83c0-.978-.192-1.78-.574-2.408-.383-.627-.86-1.062-1.43-1.307-1.074-.44-2.304-.716-3.688-.83-1.336-.114-2.004-.554-2.004-1.319v-.465c0-.733.118-1.225.354-1.477s.688-.379 1.356-.379h.953c.651 0 1.1.114 1.343.342.245.228.367.66.367 1.294v.147c0 .342.17.513.513.513h2.077c.342 0 .513-.17.513-.513v-.464c0-1.27-.358-2.256-1.075-2.956-.717-.7-1.719-1.05-3.005-1.05h-2.443c-1.27 0-2.264.35-2.98 1.05-.717.7-1.076 1.685-1.076 2.956v.855c0 1.01.192 1.836.575 2.48.382.644.859 1.075 1.429 1.295.57.22 1.185.398 1.844.538.66.138 1.275.231 1.845.28.57.049 1.046.2 1.429.453.382.251.573.613.573 1.087v.292c0 .668-.126 1.124-.378 1.368-.252.245-.696.367-1.332.367h-1.147c-.651 0-1.1-.114-1.344-.342-.244-.228-.366-.652-.366-1.271v-.195c0-.342-.171-.513-.513-.513h-2.077c-.342 0-.513.17-.513.513zm21.914 1.808h-1.735c-.521 0-.888-.11-1.099-.33-.212-.22-.317-.59-.317-1.111v-7.452c0-.521.105-.892.317-1.111.211-.22.578-.33 1.099-.33h1.735c.521 0 .891.11 1.112.33.219.22.329.59.329 1.111v7.452c0 .52-.11.89-.329 1.111-.221.22-.591.33-1.112.33zm-2.223 2.687h2.736c1.287 0 2.28-.342 2.98-1.027.701-.683 1.051-1.668 1.051-2.955v-7.745c0-1.286-.35-2.271-1.051-2.956-.7-.683-1.693-1.025-2.98-1.025h-2.736c-1.287 0-2.281.342-2.981 1.025-.7.685-1.05 1.67-1.05 2.956v7.745c0 1.287.35 2.272 1.05 2.955.7.685 1.694 1.027 2.981 1.027zM124.849 9.81h-2.051c-.343 0-.514.17-.514.512V21.39c0 .52-.11.89-.329 1.111-.221.22-.591.33-1.112.33h-1.687c-.504 0-.866-.11-1.087-.33-.219-.22-.329-.59-.329-1.111V10.322c0-.341-.171-.512-.513-.512h-2.077c-.342 0-.513.17-.513.512v11.214c0 1.287.35 2.272 1.051 2.955.7.685 1.693 1.027 2.98 1.027h2.687c1.271 0 2.261-.346 2.969-1.038.708-.692 1.062-1.674 1.062-2.944V10.3c0-.326-.179-.489-.537-.489zm6.45 15.708h2.027c.342 0 .513-.171.513-.513V15.94h.097l4.886 9.088c.163.326.424.489.783.489h1.783c.342 0 .513-.171.513-.513V10.322c0-.341-.171-.512-.513-.512h-2.028c-.342 0-.513.17-.513.512v9.088h-.097l-4.936-9.258c-.113-.228-.341-.342-.683-.342h-1.832c-.343 0-.514.17-.514.512v14.683c0 .342.171.513.514.513zm22.158-2.687h-2.664c-.178 0-.267-.09-.267-.27v-9.796c0-.179.089-.268.267-.268h2.664c.521 0 .891.11 1.112.33.219.22.329.59.329 1.111v7.452c0 .52-.11.89-.329 1.111-.221.22-.591.33-1.112.33zm-6.035-12.51v14.684c0 .342.171.513.514.513h6.033c1.271 0 2.261-.346 2.969-1.038.708-.692 1.062-1.674 1.062-2.944v-7.745c0-1.27-.354-2.25-1.062-2.943-.708-.692-1.698-1.038-2.969-1.038h-6.033c-.343 0-.514.17-.514.512zM83.736 44.197h2.054c.337 0 .506-.169.506-.508v-4.951c0-.177.097-.265.29-.265h1.62l2.415 5.216c.08.21.184.347.313.412.129.064.338.096.628.096h1.957c.418 0 .555-.193.41-.579l-2.584-5.387v-.097c1.433-.596 2.15-1.804 2.15-3.623v-1.884c0-1.256-.355-2.23-1.063-2.923-.709-.693-1.691-1.039-2.948-1.039h-5.748c-.338 0-.507.17-.507.508v14.516c0 .34.169.508.507.508zm5.194-8.188h-2.368c-.177 0-.266-.089-.266-.266v-4.154c0-.178.089-.267.266-.267h2.368c.515 0 .893.113 1.135.34.241.224.362.587.362 1.086v1.883c0 .483-.12.834-.362 1.052-.242.217-.62.326-1.135.326zm16.401 5.531h-1.716c-.515 0-.877-.109-1.087-.326-.208-.217-.313-.583-.313-1.098v-7.368c0-.516.105-.882.313-1.1.21-.217.572-.326 1.087-.326h1.716c.515 0 .881.11 1.099.327.217.217.325.583.325 1.1v7.367c0 .515-.108.88-.325 1.098-.218.217-.584.326-1.099.326zm-2.199 2.657h2.707c1.271 0 2.254-.338 2.946-1.014.693-.676 1.039-1.65 1.039-2.923v-7.657c0-1.272-.346-2.246-1.039-2.924-.692-.676-1.675-1.014-2.946-1.014h-2.707c-1.272 0-2.254.338-2.947 1.014-.692.677-1.038 1.652-1.038 2.924v7.657c0 1.273.346 2.247 1.038 2.923.693.676 1.675 1.014 2.947 1.014zm16.282 0h2.559c1.257 0 2.231-.342 2.924-1.026.692-.685 1.039-1.655 1.039-2.911v-4.034c0-.37-.186-.556-.556-.556h-4.227c-.339 0-.508.17-.508.508v1.643c0 .337.169.506.508.506h1.449c.177 0 .266.09.266.267v1.522c0 .515-.105.88-.314 1.098-.21.217-.572.326-1.087.326h-1.57c-.5 0-.858-.109-1.075-.326-.218-.217-.326-.583-.326-1.098v-7.368c0-.516.108-.882.326-1.1.217-.217.575-.326 1.075-.326h1.57c.515 0 .877.11 1.087.327.209.217.314.583.314 1.1v.578c0 .355.169.532.507.532h2.053c.338 0 .508-.177.508-.532v-.724c0-1.256-.347-2.227-1.039-2.911-.693-.685-1.667-1.027-2.924-1.027h-2.559c-1.273 0-2.255.338-2.947 1.014-.693.677-1.039 1.652-1.039 2.924v7.657c0 1.273.346 2.247 1.039 2.923.692.676 1.674 1.014 2.947 1.014zm22.344-15.532h-2.03c-.338 0-.507.17-.507.508v10.943c0 .515-.109.88-.326 1.098-.217.217-.584.326-1.1.326h-1.666c-.5 0-.858-.109-1.075-.326-.217-.217-.326-.583-.326-1.098V29.172c0-.339-.169-.508-.507-.508h-2.053c-.338 0-.508.17-.508.508v11.087c0 1.273.347 2.247 1.039 2.923.693.676 1.675 1.014 2.947 1.014h2.657c1.256 0 2.234-.342 2.934-1.026.701-.685 1.052-1.655 1.052-2.911V29.147c0-.322-.177-.483-.531-.483zm7.005 15.532h7.898c.322 0 .483-.169.483-.508v-1.64c0-.34-.161-.509-.483-.509h-5.048c-.194 0-.291-.089-.291-.266v-3.357c0-.178.097-.266.291-.266h4.13c.339 0 .508-.17.508-.507V35.5c0-.338-.169-.507-.508-.507h-4.13c-.194 0-.291-.089-.291-.265v-3.14c0-.178.097-.267.291-.267h5.048c.322 0 .483-.169.483-.506v-1.643c0-.339-.161-.508-.483-.508h-7.898c-.339 0-.508.17-.508.508v14.516c0 .34.169.508.508.508zM36.331 2.013a6.871 6.871 0 0 0-9.717 0L6.485 22.14a6.847 6.847 0 0 0-1.56 2.405H16.45c1.174-7.238 7.453-12.764 15.022-12.764s13.847 5.526 15.021 12.764h11.527a6.847 6.847 0 0 0-1.56-2.405L36.33 2.013zM6.485 31.859a6.847 6.847 0 0 1-1.56-2.405H16.45c1.174 7.238 7.453 12.764 15.022 12.764s13.847-5.526 15.021-12.764h11.527a6.847 6.847 0 0 1-1.56 2.405L36.33 51.987a6.871 6.871 0 0 1-9.717 0L6.485 31.86zm16.716-9.728c1.486-2.262 2.93-4.458 4.835-4.458 1.906 0 3.35 2.196 4.835 4.458.328.497.657.998.993 1.48.904 1.291 2.431 1.916 4.008 1.916h23.655a1.473 1.473 0 1 1 0 2.946H44.745c-1.577 0-3.105.625-4.008 1.917-.337.48-.666.982-.993 1.48-1.486 2.26-2.93 4.457-4.835 4.457-1.906 0-3.35-2.196-4.835-4.457-.327-.498-.656-1-.993-1.48-.903-1.292-2.43-1.917-4.007-1.917H1.473a1.473 1.473 0 1 1 0-2.946H18.2c1.576 0 3.104-.625 4.008-1.917.336-.48.665-.982.992-1.48z" fill="#fff"/>
</svg>
