<svg xmlns="http://www.w3.org/2000/svg" version="1.1" xmlns:xlink="http://www.w3.org/1999/xlink" xmlns:svgjs="http://svgjs.dev/svgjs" width="24" height="24"><svg width="24" height="24" viewBox="0 0 24 24" fill="none" xmlns="http://www.w3.org/2000/svg">
<rect width="24" height="24" rx="4" fill="#0A0A0A"></rect>
<path fill-rule="evenodd" clip-rule="evenodd" d="M13.5338 4.0689C12.6819 3.21703 11.3008 3.21703 10.4489 4.0689L4.05881 10.459C3.83463 10.6832 3.66945 10.944 3.56326 11.2222H7.22268C7.59526 8.92453 9.58844 7.17026 11.9913 7.17026C14.3942 7.17026 16.3874 8.92453 16.76 11.2222H20.4194C20.3132 10.944 20.148 10.6832 19.9239 10.459L13.5338 4.0689ZM4.05881 13.5439C3.83463 13.3197 3.66944 13.0588 3.56326 12.7806H7.22268C7.59526 15.0783 9.58844 16.8326 11.9913 16.8326C14.3942 16.8326 16.3874 15.0783 16.76 12.7806H20.4194C20.3132 13.0588 20.148 13.3197 19.9239 13.5439L13.5338 19.934C12.6819 20.7858 11.3008 20.7858 10.4489 19.934L4.05881 13.5439ZM9.36547 10.4556C9.83718 9.73773 10.2954 9.0404 10.9004 9.0404C11.5055 9.0404 11.9637 9.73773 12.4354 10.4556C12.5392 10.6136 12.6437 10.7726 12.7505 10.9253C13.0374 11.3355 13.5223 11.5339 14.0228 11.5339H21.5325C21.7907 11.5339 22 11.7432 22 12.0014C22 12.2596 21.7907 12.469 21.5325 12.469H16.2046C15.7041 12.469 15.2192 12.6674 14.9324 13.0775C14.8255 13.2303 14.721 13.3893 14.6172 13.5473C14.1455 14.2651 13.6873 14.9625 13.0822 14.9625C12.4772 14.9625 12.019 14.2651 11.5473 13.5473C11.4435 13.3893 11.339 13.2303 11.2321 13.0775C10.9453 12.6674 10.4604 12.469 9.95989 12.469H2.46753C2.20932 12.469 2 12.2596 2 12.0014C2 11.7432 2.20932 11.5339 2.46753 11.5339H7.77808C8.27856 11.5339 8.76351 11.3355 9.05034 10.9253C9.15715 10.7726 9.26167 10.6135 9.36547 10.4556Z" fill="white"></path>
</svg><style>@media (prefers-color-scheme: light) { :root { filter: none; } }
@media (prefers-color-scheme: dark) { :root { filter: none; } }
</style></svg>